<?xml version="1.0" encoding="utf-8"?>
<!-- Generator: Adobe Illustrator 16.0.0, SVG Export Plug-In . SVG Version: 6.00 Build 0)  -->
<!DOCTYPE svg PUBLIC "-//W3C//DTD SVG 1.1//EN" "http://www.w3.org/Graphics/SVG/1.1/DTD/svg11.dtd">
<svg version="1.1" id="Camada_1" xmlns="http://www.w3.org/2000/svg" xmlns:xlink="http://www.w3.org/1999/xlink" x="0px" y="0px"
	 width="232px" height="27px" viewBox="0 0 232 27" enable-background="new 0 0 232 27" xml:space="preserve">
<g>
	<g>
		<path d="M29.217,4.539l-0.212,0.983l-0.099,0.471c-0.645-0.344-1.482-0.728-2.069-0.758c-1.102-0.072-1.988,0.252-2.771,0.526
			c-0.677,0.24-1.21,0.43-1.725,0.331c-0.653-0.12-1.228-0.326-1.834-0.547c-1.033-0.374-2.105-0.764-3.631-0.781
			c-1.137,0.003-2.531,0.67-3.697,1.272c-0.393,0.201-0.772,0.4-1.132,0.557c-1.017,0.451-2.657-0.047-3.645-0.345
			C8.194,6.184,8.009,6.128,7.852,6.087c-0.774-0.21-1.936-0.443-2.679-0.475c-1.027-0.03-2.084,0.221-2.876,0.473L2.165,5.426
			L1.998,4.539H0.28l3.852,17.928h22.989l3.915-17.928H29.217z M25.882,21.168H5.273L2.835,8.777L2.597,7.586
			c0.671-0.235,1.615-0.487,2.519-0.432c0.516,0.018,1.513,0.201,2.33,0.423C7.6,7.616,7.766,7.669,7.958,7.727
			c0.798,0.241,1.946,0.592,3.089,0.592c0.56,0,1.121-0.088,1.634-0.313c0.379-0.171,0.788-0.381,1.206-0.597
			c1.003-0.516,2.13-1.099,2.962-1.099h0.019c1.26,0.011,2.162,0.337,3.115,0.685c0.638,0.231,1.299,0.473,2.075,0.617
			c0.915,0.167,1.734-0.116,2.521-0.396c0.712-0.248,1.385-0.473,2.18-0.438c0.305,0.014,1.11,0.39,1.818,0.796l-0.221,1.06
			L25.882,21.168z"/>
		<path d="M12.122,9.512h-1.687L5.894,16.16v1.758h4.286v2.105h1.942v-2.105h1.298v-1.764h-1.298V9.512z M10.18,16.154H7.771
			l2.408-3.579V16.154z"/>
		<path d="M17.769,9.512c-1.013,0-1.804,0.356-2.37,1.07c-0.687,0.867-1.028,2.286-1.028,4.258c0,2.008,0.313,3.404,0.937,4.186
			c0.624,0.785,1.441,1.178,2.462,1.178c1.015,0,1.805-0.359,2.371-1.072c0.687-0.867,1.028-2.289,1.028-4.271
			c0-1.984-0.339-3.405-1.021-4.262C19.577,9.874,18.783,9.512,17.769,9.512z M18.861,17.473c-0.104,0.4-0.253,0.678-0.442,0.832
			c-0.19,0.156-0.405,0.232-0.65,0.232c-0.242,0-0.456-0.076-0.646-0.227c-0.188-0.156-0.345-0.459-0.469-0.92
			c-0.122-0.459-0.185-1.301-0.185-2.531c0-1.226,0.068-2.1,0.207-2.62c0.104-0.4,0.253-0.677,0.44-0.83
			c0.192-0.157,0.409-0.233,0.651-0.233c0.245,0,0.46,0.076,0.646,0.233c0.19,0.153,0.346,0.461,0.469,0.919
			c0.124,0.459,0.187,1.305,0.187,2.531C19.069,16.09,19.001,16.961,18.861,17.473z"/>
		<path d="M25.659,9.738c-0.336-0.187-0.722-0.282-1.163-0.282c-0.438,0-0.824,0.096-1.16,0.282
			c-0.333,0.186-0.589,0.444-0.77,0.781c-0.179,0.334-0.269,0.717-0.269,1.15c0,0.648,0.199,1.174,0.599,1.579
			c0.398,0.406,0.934,0.609,1.6,0.609c0.454,0,0.845-0.094,1.176-0.277c0.33-0.186,0.585-0.439,0.763-0.771
			c0.181-0.326,0.27-0.706,0.27-1.14s-0.093-0.816-0.27-1.15C26.251,10.183,25.992,9.924,25.659,9.738z M25.219,12.577
			c-0.17,0.214-0.411,0.321-0.723,0.321c-0.305,0-0.542-0.107-0.711-0.321c-0.171-0.217-0.26-0.518-0.26-0.907
			c0-0.393,0.089-0.702,0.26-0.919c0.174-0.22,0.41-0.329,0.711-0.329c0.309,0,0.546,0.109,0.72,0.329
			c0.172,0.217,0.261,0.526,0.261,0.919C25.477,12.06,25.39,12.36,25.219,12.577z"/>
	</g>
	<g>
		<path d="M97.408,11.514c-1.154,0-1.99,0.897-1.99,1.989s0.836,1.99,1.99,1.99c1.092,0,1.99-0.898,1.99-1.99
			S98.5,11.514,97.408,11.514"/>
		<path d="M107.356,13.502v9.949H98.37C103.375,22.938,107.356,18.701,107.356,13.502c0-5.455-4.492-9.946-9.95-9.946
			c-5.198,0-9.432,3.978-9.945,8.983V3.557h9.945h9.95V13.502z M89.451,13.502c0-4.364,3.528-7.891,7.955-7.891
			c4.366,0,7.896,3.527,7.896,7.891c0,4.427-3.529,7.958-7.896,7.958C92.979,21.461,89.451,17.93,89.451,13.502 M87.461,23.451
			v-8.922c0.514,4.686,4.235,8.408,8.92,8.922H87.461z M85.47,25.439h23.874V1.564H85.47V25.439z"/>
	</g>
	<path d="M138.279,14.982c1.103,0,1.953,0.902,1.953,1.953c0,1.104-0.851,2.004-1.953,2.004c-1.104,0-1.955-0.9-1.955-2.004
		C136.324,15.885,137.176,14.982,138.279,14.982 M148.854,13.027l1.551,7.818h-24.753l0.852-4.311
		c0.399-2.004,1.703-3.508,4.31-3.508H148.854z M128.607,6.213h18.843l1.002,4.859h-17.892c-2.807,0-5.357,2.155-6.013,5.262
		l-1.351,6.463h30.167l-3.909-18.59h-20.396L128.607,6.213z"/>
	<g>
		<path d="M220.029,23.563c6.465,0,11.69-5.229,11.69-11.69c0-6.463-5.226-11.691-11.69-11.691c-6.461,0-11.69,5.229-11.69,11.691
			C208.339,18.334,213.568,23.563,220.029,23.563z M220.029,2.373c5.228,0,9.497,4.271,9.497,9.499c0,5.226-4.27,9.497-9.497,9.497
			c-5.226,0-9.497-4.271-9.497-9.497C210.532,6.644,214.804,2.373,220.029,2.373z"/>
		<path d="M215.097,17.975l2.448-0.012l1.195-4.562l0.99-3.727l2.221,8.3h2.381c0.007,0,0.014-0.004,0.014-0.012l2.135-8.841
			l0.554-2.28h-0.004l0.004-0.016l-2.277,0.013l-0.872,4.042l-0.811,3.691l-1.957-7.746l-2.685,0.013l-1.059,4.036l-0.95,3.574
			l-1.684-7.623l-1.852,0.016h-0.447l0.001,0.004h-0.017L215.097,17.975z"/>
		<rect x="208.892" y="24.664" width="22.274" height="2.154"/>
	</g>
	<path d="M190.831,13.819c0.018-0.209,0.021-0.443,0.024-0.696c0.012-3.173-1.254-6.057-3.308-8.176l2.336-2.567l-0.996-0.905
		l-2.329,2.56c-0.555-0.455-1.149-0.864-1.782-1.213c-0.721-0.401-1.5-0.734-2.326-0.975c-0.813-0.238-1.669-0.396-2.548-0.448
		c-0.212-0.011-0.446-0.023-0.699-0.023c-0.251,0-0.488,0.008-0.707,0.018c-2.677,0.15-5.11,1.212-7.014,2.873l-2.571-2.876
		l-1.004,0.898l2.613,2.922c-1.742,1.909-2.865,4.384-3.041,7.115c-0.013,0.21-0.02,0.445-0.025,0.697
		c0,0.252,0.01,0.494,0.02,0.712c0.167,2.939,1.425,5.597,3.376,7.562l-3.041,3.342l0.998,0.908l3.053-3.354
		c1.822,1.461,4.078,2.398,6.545,2.557c0.216,0.014,0.447,0.02,0.704,0.02c0.249,0.002,0.48,0,0.695-0.016
		c2.312-0.127,4.444-0.939,6.209-2.223l2.772,3.1l1.001-0.898l-2.732-3.057c0.11-0.102,0.227-0.197,0.333-0.303
		C189.365,19.418,190.647,16.762,190.831,13.819z M178.602,3.346c0.213-0.01,0.413-0.017,0.598-0.017
		c0.174,0.003,0.364,0.008,0.582,0.021c0.734,0.047,1.44,0.174,2.12,0.376c0.675,0.2,1.327,0.475,1.941,0.81
		c0.495,0.273,0.953,0.603,1.392,0.955l-6.383,7.015l-6.067-6.784C174.363,4.35,176.384,3.471,178.602,3.346z M169.43,13.625
		c-0.01-0.211-0.017-0.409-0.017-0.592c0-0.176,0.007-0.369,0.024-0.582c0.138-2.206,1.02-4.212,2.391-5.779l6.112,6.834
		l-5.77,6.339C170.588,18.211,169.561,16.035,169.43,13.625z M179.7,22.801c-0.212,0.008-0.409,0.016-0.584,0.016
		c-0.174,0-0.368-0.01-0.584-0.02c-2.015-0.131-3.856-0.879-5.355-2.053l5.667-6.229l5.862,6.555
		C183.268,22.072,181.551,22.699,179.7,22.801z M179.754,13.514l6.469-7.11c1.658,1.757,2.687,4.113,2.68,6.711
		c0,0.178-0.015,0.368-0.024,0.583c-0.155,2.449-1.222,4.656-2.868,6.289c-0.082,0.082-0.173,0.156-0.258,0.234L179.754,13.514z"/>
	<path d="M51.422,20.414l5.215-5.855l5.218,5.855H51.422z M47.854,20.414l5.521-9.517l2.368,2.656l-6.109,6.861H47.854z
		 M56.477,5.546l2.545,4.332l-2.385,2.675L54.08,9.679L56.477,5.546z M65.212,20.414h-1.57l-6.11-6.861l2.2-2.466L65.212,20.414z
		 M68.627,22.189l-7.45-12.727l6.267-7.034l-0.996-0.888l-5.979,6.712l-3.991-6.816l-3.84,6.622l-5.808-6.518L45.83,2.429
		l6.102,6.846l-7.494,12.915h3.614l-2.222,2.49l0.999,0.891l3.012-3.381h13.595l3.01,3.381l0.998-0.891l-2.219-2.49H68.627z"/>
</g>
</svg>
